<svg xmlns="http://www.w3.org/2000/svg" width="184" height="184" viewBox="0 0 184 184" role="img" aria-label="Nikah süsleme">
  <circle cx="92" cy="92" r="58" fill="none" stroke="#cfc0a8" stroke-width="1.2" opacity=".62"/>
  <circle cx="92" cy="92" r="39" fill="none" stroke="#879070" stroke-width="1" opacity=".52"/>
  <path d="M52 116c30-8 58-35 74-70" fill="none" stroke="#3f4a36" stroke-width="1.4" stroke-linecap="round" opacity=".72"/>
  <path d="M68 101c-14 1-24-5-30-15 14-1 24 5 30 15Z" fill="none" stroke="#879070" stroke-width="1.2" opacity=".72"/>
  <path d="M82 88c-13-2-21-10-24-21 13 2 21 10 24 21Z" fill="none" stroke="#879070" stroke-width="1.2" opacity=".68"/>
  <path d="M96 75c-10-6-15-15-13-26 10 6 15 15 13 26Z" fill="none" stroke="#879070" stroke-width="1.2" opacity=".64"/>
  <path d="M80 102c14 1 25-4 32-14-14-1-25 4-32 14Z" fill="none" stroke="#b8a882" stroke-width="1.15" opacity=".7"/>
  <path d="M95 88c13-2 23-9 28-20-13 2-23 9-28 20Z" fill="none" stroke="#b8a882" stroke-width="1.15" opacity=".66"/>
  <path d="M109 72c11-5 18-14 18-25-11 5-18 14-18 25Z" fill="none" stroke="#b8a882" stroke-width="1.15" opacity=".62"/>
  <path d="M45 121c25 10 63 8 92-10" fill="none" stroke="#cfc0a8" stroke-width="1" stroke-linecap="round" opacity=".58"/>
  <circle cx="45" cy="121" r="2.2" fill="#b8a882" opacity=".58"/>
  <circle cx="137" cy="111" r="2.2" fill="#879070" opacity=".5"/>
</svg>
