<svg xmlns="http://www.w3.org/2000/svg" width="168" height="132" viewBox="0 0 168 132" role="img" aria-label="Anı zarfı">
  <rect x="28" y="34" width="112" height="74" rx="8" fill="#fffdf8" stroke="#cfc0a8" stroke-width="1.4"/>
  <path d="M31 40 84 78l53-38" fill="none" stroke="#b8a882" stroke-width="1.2" stroke-linecap="round" stroke-linejoin="round" opacity=".78"/>
  <path d="M31 102 69 69" fill="none" stroke="#cfc0a8" stroke-width="1.1" stroke-linecap="round" opacity=".72"/>
  <path d="M137 102 99 69" fill="none" stroke="#cfc0a8" stroke-width="1.1" stroke-linecap="round" opacity=".72"/>
  <rect x="57" y="18" width="56" height="42" rx="5" fill="#faf8f5" stroke="#879070" stroke-width="1.2" transform="rotate(-6 85 39)"/>
  <path d="M64 48c8-10 13-10 18-2 5-13 14-16 25 2" fill="none" stroke="#3f4a36" stroke-width="1.3" stroke-linecap="round" stroke-linejoin="round" opacity=".78"/>
  <circle cx="99" cy="31" r="5" fill="#cfc0a8" opacity=".72"/>
  <path d="M83 85c8-8 17-8 25 0-8 8-17 8-25 0Z" fill="none" stroke="#7a2535" stroke-width="1.2" opacity=".64"/>
  <path d="M83 85c-8 8-17 8-25 0 8-8 17-8 25 0Z" fill="none" stroke="#879070" stroke-width="1.2" opacity=".64"/>
  <circle cx="83" cy="85" r="2.6" fill="#b8a882" opacity=".7"/>
</svg>
